<svg width="20" height="20" viewBox="0 0 20 20" fill="none" xmlns="http://www.w3.org/2000/svg">
<path fill-rule="evenodd" clip-rule="evenodd" d="M1.25 10C1.25 14.8325 5.16751 18.75 10 18.75C14.8325 18.75 18.75 14.8325 18.75 10C18.75 5.16751 14.8325 1.25 10 1.25C5.16751 1.25 1.25 5.16751 1.25 10ZM20 10C20 15.5228 15.5228 20 10 20C4.47715 20 0 15.5228 0 10C0 4.47715 4.47715 0 10 0C15.5228 0 20 4.47715 20 10ZM5.625 9.375C5.27982 9.375 5 9.65482 5 10C5 10.3452 5.27982 10.625 5.625 10.625H12.8661L10.1831 13.3081C9.93898 13.5521 9.93898 13.9479 10.1831 14.1919C10.4271 14.436 10.8229 14.436 11.0669 14.1919L14.8169 10.4419C15.061 10.1979 15.061 9.80213 14.8169 9.55806L11.0669 5.80806C10.8229 5.56398 10.4271 5.56398 10.1831 5.80806C9.93898 6.05214 9.93898 6.44787 10.1831 6.69194L12.8661 9.375H5.625Z" fill="#F0F2F3"/>
</svg>
