<svg width="20" height="20" viewBox="0 0 20 20" fill="none" xmlns="http://www.w3.org/2000/svg">
<path fill-rule="evenodd" clip-rule="evenodd" d="M1.25 10C1.25 14.8325 5.16751 18.75 10 18.75C14.8325 18.75 18.75 14.8325 18.75 10C18.75 5.16751 14.8325 1.25 10 1.25C5.16751 1.25 1.25 5.16751 1.25 10ZM20 10C20 15.5228 15.5228 20 10 20C4.47715 20 0 15.5228 0 10C0 4.47715 4.47715 0 10 0C15.5228 0 20 4.47715 20 10ZM14.375 9.375C14.7202 9.375 15 9.65482 15 10C15 10.3452 14.7202 10.625 14.375 10.625H7.13388L9.81694 13.3081C10.061 13.5521 10.061 13.9479 9.81694 14.1919C9.57286 14.436 9.17714 14.436 8.93306 14.1919L5.18306 10.4419C4.93898 10.1979 4.93898 9.80213 5.18306 9.55806L8.93306 5.80806C9.17714 5.56398 9.57286 5.56398 9.81694 5.80806C10.061 6.05214 10.061 6.44787 9.81694 6.69194L7.13388 9.375H14.375Z" fill="#F0F2F3"/>
</svg>
