<svg width="35" height="35" viewBox="0 0 35 35" fill="none" xmlns="http://www.w3.org/2000/svg">
<mask id="mask0_818_1285" style="mask-type:alpha" maskUnits="userSpaceOnUse" x="0" y="0" width="35" height="35">
<rect width="35" height="35" fill="#D9D9D9"/>
</mask>
<g mask="url(#mask0_818_1285)">
<path d="M17.9094 30.2828C16.7334 29.4152 15.4695 28.745 14.1177 28.2719C12.7659 27.7989 11.3656 27.5624 9.91659 27.5624C9.02665 27.5624 8.15259 27.6611 7.29444 27.8583C6.43626 28.0555 5.60893 28.3458 4.81246 28.7291C4.29271 28.9684 3.79819 28.9328 3.3289 28.6225C2.85963 28.3121 2.625 27.8727 2.625 27.3044V11.4984C2.625 11.1843 2.7082 10.894 2.87459 10.6276C3.04099 10.3612 3.27189 10.1672 3.5673 10.0457C4.55447 9.56516 5.58324 9.20479 6.65361 8.96456C7.72398 8.7243 8.81164 8.60417 9.91659 8.60417C11.3357 8.60417 12.7173 8.80516 14.0616 9.20715C15.4059 9.60914 16.6978 10.1747 17.9374 10.9039V27.6522C19.1677 26.8744 20.4657 26.3004 21.8315 25.9303C23.1972 25.5601 24.5728 25.375 25.9583 25.375C26.7959 25.375 27.5872 25.4339 28.3322 25.5516C29.0773 25.6694 29.8471 25.8555 30.6417 26.1097C30.7446 26.1378 30.8404 26.1401 30.9292 26.1167C31.018 26.0934 31.0624 26.0162 31.0624 25.8853V9.50724C31.3148 9.58203 31.5611 9.66523 31.8014 9.75684C32.0416 9.84844 32.2758 9.96342 32.5039 10.1018C32.7526 10.2233 32.939 10.4009 33.0634 10.6346C33.1877 10.8683 33.2499 11.1189 33.2499 11.3862V27.2763C33.2499 27.8447 33.0082 28.2817 32.5249 28.5874C32.0416 28.8931 31.526 28.931 30.9782 28.701C30.1911 28.3271 29.3755 28.0438 28.5313 27.8513C27.6872 27.6587 26.8295 27.5624 25.9583 27.5624C24.4999 27.5624 23.0855 27.7919 21.7151 28.2509C20.3446 28.7099 19.0761 29.3872 17.9094 30.2828ZM20.8541 23.9166V10.7917L28.1458 3.5V17.3541L20.8541 23.9166ZM15.75 26.5949V12.2275C14.8357 11.7751 13.8887 11.4227 12.909 11.1703C11.9293 10.9178 10.9318 10.7916 9.91659 10.7916C9.01729 10.7916 8.16332 10.8744 7.3547 11.0398C6.54608 11.2053 5.78747 11.4348 5.07886 11.7283C5.00408 11.7564 4.94098 11.7961 4.88957 11.8475C4.83814 11.8989 4.81243 11.962 4.81243 12.0368V25.9358C4.81243 26.0667 4.85683 26.1439 4.94565 26.1672C5.03446 26.1906 5.13028 26.1836 5.23312 26.1462C5.95293 25.8863 6.69471 25.6928 7.45846 25.5657C8.22222 25.4385 9.04159 25.375 9.91659 25.375C11.0066 25.375 12.048 25.4876 13.0408 25.7129C14.0336 25.9382 14.9367 26.2322 15.75 26.5949Z" fill="#FFA144"/>
</g>
</svg>
