<svg width="35" height="35" viewBox="0 0 35 35" fill="none" xmlns="http://www.w3.org/2000/svg">
<mask id="mask0_818_660" style="mask-type:alpha" maskUnits="userSpaceOnUse" x="0" y="0" width="35" height="35">
<rect width="35" height="35" fill="#D9D9D9"/>
</mask>
<g mask="url(#mask0_818_660)">
<path d="M6.28223 29.8958C5.54557 29.8958 4.92204 29.6406 4.41162 29.1302C3.9012 28.6198 3.646 27.9962 3.646 27.2596V12.1154C3.646 11.3788 3.9012 10.7553 4.41162 10.2448C4.92204 9.73442 5.54557 9.47921 6.28223 9.47921H12.396V7.01131C12.396 6.27469 12.6512 5.65116 13.1616 5.14075C13.672 4.63033 14.2956 4.37512 15.0322 4.37512H19.968C20.7047 4.37512 21.3282 4.63033 21.8386 5.14075C22.3491 5.65116 22.6043 6.27469 22.6043 7.01131V9.47921H28.718C29.4547 9.47921 30.0782 9.73442 30.5886 10.2448C31.0991 10.7553 31.3543 11.3788 31.3543 12.1154V27.2596C31.3543 27.9962 31.0991 28.6198 30.5886 29.1302C30.0782 29.6406 29.4547 29.8958 28.718 29.8958H6.28223ZM14.5835 9.47921H20.4168V7.01131C20.4168 6.89912 20.3701 6.79628 20.2766 6.70281C20.1831 6.6093 20.0802 6.56255 19.968 6.56255H15.0322C14.92 6.56255 14.8172 6.6093 14.7237 6.70281C14.6302 6.79628 14.5835 6.89912 14.5835 7.01131V9.47921ZM29.1668 21.5104H21.1459V24.0625H13.8543V21.5104H5.83346V27.2596C5.83346 27.3718 5.8802 27.4746 5.97368 27.5681C6.06718 27.6616 6.17003 27.7083 6.28223 27.7083H28.718C28.8302 27.7083 28.9331 27.6616 29.0266 27.5681C29.1201 27.4746 29.1668 27.3718 29.1668 27.2596V21.5104ZM16.0418 21.875H18.9585V18.9583H16.0418V21.875ZM5.83346 19.323H13.8543V16.7709H21.1459V19.323H29.1668V12.1154C29.1668 12.0033 29.1201 11.9004 29.0266 11.8069C28.9331 11.7134 28.8302 11.6667 28.718 11.6667H6.28223C6.17003 11.6667 6.06718 11.7134 5.97368 11.8069C5.8802 11.9004 5.83346 12.0033 5.83346 12.1154V19.323Z" fill="#FFA144"/>
</g>
</svg>
