<svg width="35" height="35" viewBox="0 0 35 35" fill="none" xmlns="http://www.w3.org/2000/svg">
<mask id="mask0_818_13080" style="mask-type:alpha" maskUnits="userSpaceOnUse" x="0" y="0" width="35" height="35">
<rect width="35" height="35" fill="#D9D9D9"/>
</mask>
<g mask="url(#mask0_818_13080)">
<path d="M7.74048 31.3541C7.00382 31.3541 6.38029 31.0989 5.86987 30.5885C5.35946 30.0781 5.10425 29.4545 5.10425 28.7179V9.19875C5.10425 8.4621 5.35946 7.83856 5.86987 7.32815C6.38029 6.81773 7.00382 6.56252 7.74048 6.56252H9.75972V3.4776H12.0033V6.56252H23.0529V3.4776H25.2404V6.56252H27.2596C27.9963 6.56252 28.6198 6.81773 29.1302 7.32815C29.6406 7.83856 29.8958 8.4621 29.8958 9.19875V28.7179C29.8958 29.4545 29.6406 30.0781 29.1302 30.5885C28.6198 31.0989 27.9963 31.3541 27.2596 31.3541H7.74048ZM7.74048 29.1667H27.2596C27.3718 29.1667 27.4747 29.1199 27.5682 29.0264C27.6616 28.9329 27.7084 28.8301 27.7084 28.7179V15.0321H7.29171V28.7179C7.29171 28.8301 7.33845 28.9329 7.43193 29.0264C7.52543 29.1199 7.62828 29.1667 7.74048 29.1667ZM7.29171 12.8446H27.7084V9.19875C27.7084 9.08656 27.6616 8.98371 27.5682 8.89021C27.4747 8.79673 27.3718 8.74999 27.2596 8.74999H7.74048C7.62828 8.74999 7.52543 8.79673 7.43193 8.89021C7.33845 8.98371 7.29171 9.08656 7.29171 9.19875V12.8446ZM17.5 20.5288C17.1429 20.5288 16.8387 20.4031 16.5872 20.1516C16.3357 19.9002 16.21 19.5959 16.21 19.2388C16.21 18.8817 16.3357 18.5774 16.5872 18.326C16.8387 18.0745 17.1429 17.9488 17.5 17.9488C17.8571 17.9488 18.1614 18.0745 18.4129 18.326C18.6644 18.5774 18.7901 18.8817 18.7901 19.2388C18.7901 19.5959 18.6644 19.9002 18.4129 20.1516C18.1614 20.4031 17.8571 20.5288 17.5 20.5288ZM11.6667 20.5288C11.3096 20.5288 11.0053 20.4031 10.7539 20.1516C10.5024 19.9002 10.3767 19.5959 10.3767 19.2388C10.3767 18.8817 10.5024 18.5774 10.7539 18.326C11.0053 18.0745 11.3096 17.9488 11.6667 17.9488C12.0238 17.9488 12.3281 18.0745 12.5796 18.326C12.831 18.5774 12.9568 18.8817 12.9568 19.2388C12.9568 19.5959 12.831 19.9002 12.5796 20.1516C12.3281 20.4031 12.0238 20.5288 11.6667 20.5288ZM23.3334 20.5288C22.9763 20.5288 22.672 20.4031 22.4205 20.1516C22.1691 19.9002 22.0433 19.5959 22.0433 19.2388C22.0433 18.8817 22.1691 18.5774 22.4205 18.326C22.672 18.0745 22.9763 17.9488 23.3334 17.9488C23.6905 17.9488 23.9948 18.0745 24.2462 18.326C24.4977 18.5774 24.6234 18.8817 24.6234 19.2388C24.6234 19.5959 24.4977 19.9002 24.2462 20.1516C23.9948 20.4031 23.6905 20.5288 23.3334 20.5288ZM17.5 26.25C17.1429 26.25 16.8387 26.1243 16.5872 25.8728C16.3357 25.6213 16.21 25.317 16.21 24.9599C16.21 24.6028 16.3357 24.2986 16.5872 24.0471C16.8387 23.7956 17.1429 23.6699 17.5 23.6699C17.8571 23.6699 18.1614 23.7956 18.4129 24.0471C18.6644 24.2986 18.7901 24.6028 18.7901 24.9599C18.7901 25.317 18.6644 25.6213 18.4129 25.8728C18.1614 26.1243 17.8571 26.25 17.5 26.25ZM11.6667 26.25C11.3096 26.25 11.0053 26.1243 10.7539 25.8728C10.5024 25.6213 10.3767 25.317 10.3767 24.9599C10.3767 24.6028 10.5024 24.2986 10.7539 24.0471C11.0053 23.7956 11.3096 23.6699 11.6667 23.6699C12.0238 23.6699 12.3281 23.7956 12.5796 24.0471C12.831 24.2986 12.9568 24.6028 12.9568 24.9599C12.9568 25.317 12.831 25.6213 12.5796 25.8728C12.3281 26.1243 12.0238 26.25 11.6667 26.25ZM23.3334 26.25C22.9763 26.25 22.672 26.1243 22.4205 25.8728C22.1691 25.6213 22.0433 25.317 22.0433 24.9599C22.0433 24.6028 22.1691 24.2986 22.4205 24.0471C22.672 23.7956 22.9763 23.6699 23.3334 23.6699C23.6905 23.6699 23.9948 23.7956 24.2462 24.0471C24.4977 24.2986 24.6234 24.6028 24.6234 24.9599C24.6234 25.317 24.4977 25.6213 24.2462 25.8728C23.9948 26.1243 23.6905 26.25 23.3334 26.25Z" fill="#FFA144"/>
</g>
</svg>
