<svg width="20" height="20" viewBox="0 0 20 20" fill="none" xmlns="http://www.w3.org/2000/svg">
<mask id="mask0_818_4832" style="mask-type:alpha" maskUnits="userSpaceOnUse" x="0" y="0" width="20" height="20">
<rect width="20" height="20" fill="#D9D9D9"/>
</mask>
<g mask="url(#mask0_818_4832)">
<path d="M7.83341 16.2915C7.58341 15.8332 7.36466 15.3575 7.17716 14.8644C6.98966 14.3714 6.83341 13.8609 6.70841 13.3332H4.25008C4.65286 14.0276 5.15633 14.6318 5.7605 15.1457C6.36466 15.6596 7.05564 16.0415 7.83341 16.2915ZM3.54175 11.6665H6.37508C6.33341 11.3887 6.30216 11.1144 6.28133 10.8436C6.2605 10.5728 6.25008 10.2915 6.25008 9.99984C6.25008 9.70817 6.2605 9.42692 6.28133 9.15609C6.30216 8.88525 6.33341 8.61095 6.37508 8.33317H3.54175C3.4723 8.61095 3.42022 8.88525 3.3855 9.15609C3.35078 9.42692 3.33341 9.70817 3.33341 9.99984C3.33341 10.2915 3.35078 10.5728 3.3855 10.8436C3.42022 11.1144 3.4723 11.3887 3.54175 11.6665ZM4.25008 6.6665H6.70841C6.83341 6.13873 6.98966 5.62831 7.17716 5.13525C7.36466 4.6422 7.58341 4.1665 7.83341 3.70817C7.05564 3.95817 6.36466 4.34012 5.7605 4.854C5.15633 5.36789 4.65286 5.97206 4.25008 6.6665ZM8.41675 6.6665H11.5834C11.4167 6.05539 11.2015 5.479 10.9376 4.93734C10.6737 4.39567 10.3612 3.87484 10.0001 3.37484C9.63897 3.87484 9.32647 4.39567 9.06258 4.93734C8.79869 5.479 8.58342 6.05539 8.41675 6.6665ZM13.2917 6.6665H15.7501C15.3473 5.97206 14.8438 5.36789 14.2397 4.854C13.6355 4.34012 12.9445 3.95817 12.1667 3.70817C12.4167 4.1665 12.6355 4.6422 12.823 5.13525C13.0105 5.62831 13.1667 6.13873 13.2917 6.6665ZM10.0001 18.3332C8.86119 18.3332 7.7848 18.1144 6.77091 17.6769C5.75703 17.2394 4.87161 16.6422 4.11466 15.8853C3.35772 15.1283 2.7605 14.2429 2.323 13.229C1.8855 12.2151 1.66675 11.1387 1.66675 9.99984C1.66675 8.84706 1.8855 7.7672 2.323 6.76025C2.7605 5.75331 3.35772 4.87136 4.11466 4.11442C4.87161 3.35748 5.75703 2.76025 6.77091 2.32275C7.7848 1.88525 8.86119 1.6665 10.0001 1.6665C11.1529 1.6665 12.2327 1.88525 13.2397 2.32275C14.2466 2.76025 15.1286 3.35748 15.8855 4.11442C16.6424 4.87136 17.2397 5.75331 17.6772 6.76025C18.1147 7.7672 18.3334 8.84706 18.3334 9.99984C18.3334 10.1387 18.3299 10.2776 18.323 10.4165C18.3161 10.5554 18.3056 10.6943 18.2917 10.8332H16.6042C16.632 10.6943 16.6494 10.5589 16.6563 10.4269C16.6633 10.295 16.6667 10.1526 16.6667 9.99984C16.6667 9.70817 16.6494 9.42692 16.6147 9.15609C16.5799 8.88525 16.5279 8.61095 16.4584 8.33317H13.6251C13.6667 8.61095 13.698 8.88525 13.7188 9.15609C13.7397 9.42692 13.7501 9.70817 13.7501 9.99984V10.4269C13.7501 10.5589 13.7431 10.6943 13.7292 10.8332H12.0626C12.0765 10.6943 12.0834 10.5589 12.0834 10.4269V9.99984C12.0834 9.70817 12.073 9.42692 12.0522 9.15609C12.0313 8.88525 12.0001 8.61095 11.9584 8.33317H8.04175C8.00008 8.61095 7.96883 8.88525 7.948 9.15609C7.92716 9.42692 7.91675 9.70817 7.91675 9.99984C7.91675 10.2915 7.92716 10.5728 7.948 10.8436C7.96883 11.1144 8.00008 11.3887 8.04175 11.6665H10.8334V13.3332H8.41675C8.58342 13.9443 8.79869 14.5207 9.06258 15.0623C9.32647 15.604 9.63897 16.1248 10.0001 16.6248C10.1529 16.4026 10.2987 16.1769 10.4376 15.9478C10.5765 15.7186 10.7084 15.4859 10.8334 15.2498V18.2915C10.6945 18.3054 10.5591 18.3158 10.4272 18.3228C10.2952 18.3297 10.1529 18.3332 10.0001 18.3332ZM16.6251 17.8123L14.1667 15.354V17.2082H12.5001V12.4998H17.2084V14.1665H15.3334L17.7917 16.6248L16.6251 17.8123Z" fill="#FFA144"/>
</g>
</svg>
