<svg width="32" height="32" viewBox="0 0 32 32" fill="none" xmlns="http://www.w3.org/2000/svg">
<mask id="mask0_818_13019" style="mask-type:alpha" maskUnits="userSpaceOnUse" x="0" y="0" width="32" height="32">
<rect width="32" height="32" fill="#D9D9D9"/>
</mask>
<g mask="url(#mask0_818_13019)">
<path d="M21.3253 20.0625C20.3247 20.0625 19.4741 19.7051 18.7736 18.9903C18.0732 18.2755 17.7229 17.4075 17.7229 16.3863C17.7229 15.3652 18.0732 14.4972 18.7736 13.7823C19.4741 13.0675 20.3247 12.7101 21.3253 12.7101C22.326 12.7101 23.1765 13.0675 23.877 13.7823C24.5775 14.4972 24.9277 15.3652 24.9277 16.3863C24.9277 17.4075 24.5775 18.2755 23.877 18.9903C23.1765 19.7051 22.326 20.0625 21.3253 20.0625ZM21.3253 17.9847C21.7621 17.9847 22.1324 17.8297 22.4361 17.5198C22.7397 17.2099 22.8916 16.8321 22.8916 16.3863C22.8916 15.9405 22.7397 15.5627 22.4361 15.2528C22.1324 14.9429 21.7621 14.7879 21.3253 14.7879C20.8885 14.7879 20.5182 14.9429 20.2146 15.2528C19.9109 15.5627 19.759 15.9405 19.759 16.3863C19.759 16.8321 19.9109 17.2099 20.2146 17.5198C20.5182 17.8297 20.8885 17.9847 21.3253 17.9847ZM13.6506 29V25.4623C13.6506 25.0613 13.7443 24.6841 13.9316 24.3308C14.1189 23.9775 14.3811 23.6958 14.7183 23.4857C15.3945 23.074 16.1077 22.7328 16.8579 22.462C17.6081 22.1911 18.3742 21.9907 19.156 21.8607L21.3253 24.6445L23.4816 21.8607C24.2677 21.9907 25.0325 22.1911 25.7762 22.462C26.5198 22.7328 27.2316 23.074 27.9114 23.4857C28.2491 23.6953 28.5127 23.9759 28.7024 24.3275C28.8921 24.6791 28.9913 25.053 29 25.449V29H13.6506ZM15.6528 26.9222H20.4926L18.386 24.1836C17.9064 24.3075 17.4402 24.4686 16.9874 24.6668C16.5345 24.865 16.0896 25.0858 15.6528 25.3291V26.9222ZM22.158 26.9222H26.9639V25.3291C26.541 25.0716 26.1031 24.8496 25.6502 24.6631C25.1973 24.4766 24.7311 24.3212 24.2516 24.1969L22.158 26.9222ZM5.46004 26.5492C4.77893 26.5492 4.19865 26.304 3.7192 25.8136C3.23973 25.3232 3 24.7337 3 24.0451V5.50412C3 4.81549 3.24028 4.22598 3.72083 3.7356C4.20136 3.2452 4.77903 3 5.45383 3H23.6225C24.2973 3 24.8749 3.2452 25.3555 3.7356C25.836 4.22598 26.0763 4.81549 26.0763 5.50412V11.5246C25.7926 11.196 25.4902 10.8883 25.1692 10.6015C24.8481 10.3147 24.4718 10.1154 24.0402 10.0035V5.50412C24.0402 5.3798 24.001 5.27767 23.9227 5.19774C23.8444 5.11781 23.7443 5.07784 23.6225 5.07784H5.45383C5.332 5.07784 5.23193 5.11781 5.1536 5.19774C5.07528 5.27767 5.03612 5.3798 5.03612 5.50412V24.0451C5.03612 24.1694 5.07528 24.2715 5.1536 24.3515C5.23193 24.4314 5.332 24.4714 5.45383 24.4714H10.5389C10.4972 24.6365 10.4658 24.8017 10.4449 24.9668C10.4241 25.132 10.4136 25.2972 10.4136 25.4623V26.5492H5.46004ZM8.09037 10.4324H17.8796C18.3373 10.1038 18.8319 9.85964 19.3636 9.69981C19.8952 9.53997 20.436 9.45118 20.9859 9.43342V8.35452H8.09037V10.4324ZM8.09037 15.8135H14.5512C14.5686 15.4441 14.6173 15.0885 14.6974 14.7466C14.7774 14.4048 14.8819 14.0678 15.0106 13.7357H8.09037V15.8135ZM8.09037 21.1947H12.3297C12.5699 20.9958 12.8226 20.8133 13.088 20.6472C13.3534 20.4812 13.6245 20.3333 13.9012 20.2037V19.1169H8.09037V21.1947ZM5.03612 24.4714V5.07784V9.98219V9.40676V24.4714Z" fill="#FFA144"/>
</g>
</svg>
