<svg width="35" height="35" viewBox="0 0 35 35" fill="none" xmlns="http://www.w3.org/2000/svg">
<mask id="mask0_818_11300" style="mask-type:alpha" maskUnits="userSpaceOnUse" x="0" y="0" width="35" height="35">
<rect width="35" height="35" fill="#D9D9D9"/>
</mask>
<g mask="url(#mask0_818_11300)">
<path d="M17.5 29.8958C13.9608 29.8958 11.01 29.3962 8.64771 28.3969C6.2854 27.3975 5.10425 26.1491 5.10425 24.6515V10.2084C5.10425 8.80055 6.31391 7.5979 8.73324 6.60043C11.1526 5.60297 14.0749 5.10425 17.5 5.10425C20.9252 5.10425 23.8475 5.60297 26.2668 6.60043C28.6862 7.5979 29.8958 8.80055 29.8958 10.2084V24.6515C29.8958 26.1491 28.7147 27.3975 26.3524 28.3969C23.9901 29.3962 21.0393 29.8958 17.5 29.8958ZM17.5 13.0633C19.6258 13.0633 21.7661 12.7628 23.9209 12.1617C26.0757 11.5606 27.3242 10.9123 27.6663 10.2168C27.3335 9.50258 26.0981 8.83651 23.9602 8.21859C21.8222 7.60067 19.6689 7.29171 17.5 7.29171C15.335 7.29171 13.1891 7.59226 11.0623 8.19336C8.93561 8.79444 7.68341 9.45022 7.30575 10.1607C7.67407 10.8899 8.91693 11.5559 11.0343 12.1589C13.1517 12.7618 15.3069 13.0633 17.5 13.0633ZM17.5 20.3606C18.5115 20.3606 19.4959 20.312 20.4532 20.2148C21.4104 20.1175 22.3252 19.9755 23.1973 19.7885C24.0696 19.6015 24.8861 19.3697 25.6471 19.093C26.408 18.8163 27.0951 18.5031 27.7084 18.1535V12.9791C27.0951 13.3288 26.408 13.6419 25.6471 13.9186C24.8861 14.1954 24.0696 14.4272 23.1973 14.6141C22.3252 14.8011 21.4104 14.9432 20.4532 15.0405C19.4959 15.1377 18.5115 15.1863 17.5 15.1863C16.4699 15.1863 15.4663 15.1353 14.4894 15.0334C13.5125 14.9315 12.5903 14.7871 11.7228 14.6001C10.8553 14.4132 10.0471 14.1837 9.2983 13.9116C8.54952 13.6396 7.88066 13.3288 7.29171 12.9791V18.1535C7.88066 18.5031 8.54952 18.8139 9.2983 19.086C10.0471 19.358 10.8553 19.5875 11.7228 19.7745C12.5903 19.9614 13.5125 20.1059 14.4894 20.2078C15.4663 20.3097 16.4699 20.3606 17.5 20.3606ZM17.5 27.7084C18.6836 27.7084 19.8456 27.6303 20.986 27.4742C22.1265 27.3181 23.1642 27.105 24.099 26.8348C25.0338 26.5646 25.8223 26.251 26.4646 25.8939C27.1068 25.5368 27.5214 25.1619 27.7084 24.7693V20.3409C27.0951 20.6905 26.408 21.0037 25.6471 21.2804C24.8861 21.5571 24.0696 21.789 23.1973 21.976C22.3252 22.1629 21.4104 22.305 20.4532 22.4022C19.4959 22.4995 18.5115 22.5481 17.5 22.5481C16.4699 22.5481 15.4663 22.4971 14.4894 22.3952C13.5125 22.2933 12.5903 22.1489 11.7228 21.9619C10.8553 21.775 10.0471 21.5455 9.2983 21.2734C8.54952 21.0014 7.88066 20.6905 7.29171 20.3409V24.7917C7.47869 25.1937 7.88955 25.5672 8.52429 25.9121C9.15903 26.2571 9.94382 26.5646 10.8787 26.8348C11.8135 27.105 12.8549 27.3181 14.0029 27.4742C15.1508 27.6303 16.3165 27.7084 17.5 27.7084Z" fill="#FFA144"/>
</g>
</svg>
