<svg width="35" height="35" viewBox="0 0 35 35" fill="none" xmlns="http://www.w3.org/2000/svg">
<mask id="mask0_818_8912" style="mask-type:alpha" maskUnits="userSpaceOnUse" x="0" y="0" width="35" height="35">
<rect width="35" height="35" fill="#D9D9D9"/>
</mask>
<g mask="url(#mask0_818_8912)">
<path d="M17.5 17.8007C19.5102 17.8007 21.5864 17.6108 23.7288 17.231C25.8713 16.8512 27.7632 16.3396 29.4045 15.6963V30.0058C27.8814 30.6692 26.0396 31.2058 23.8792 31.6156C21.7187 32.0255 19.5923 32.2304 17.5 32.2304C15.4077 32.2304 13.2813 32.0255 11.1209 31.6156C8.96039 31.2058 7.11859 30.6692 5.59546 30.0058V15.6963C7.23685 16.3396 9.12875 16.8512 11.2712 17.231C13.4136 17.6108 15.4898 17.8007 17.5 17.8007ZM27.0598 28.2622V18.9129C25.7872 19.2777 24.26 19.5743 22.4783 19.8027C20.6966 20.0312 19.0372 20.1454 17.5 20.1454C15.9628 20.1454 14.3034 20.0312 12.5217 19.8027C10.74 19.5743 9.21285 19.2777 7.94023 18.9129V28.2622C9.18279 28.7312 10.6959 29.119 12.4796 29.4257C14.2633 29.7323 15.9368 29.8856 17.5 29.8856C19.0632 29.8856 20.7367 29.7323 22.5204 29.4257C24.3041 29.119 25.8172 28.7312 27.0598 28.2622ZM17.5 2.76965C19.0542 2.76965 20.3847 3.32304 21.4915 4.42981C22.5982 5.53657 23.1516 6.86706 23.1516 8.42128C23.1516 9.97547 22.5982 11.306 21.4915 12.4128C20.3847 13.5195 19.0542 14.0729 17.5 14.0729C15.9458 14.0729 14.6153 13.5195 13.5085 12.4128C12.4018 11.306 11.8484 9.97547 11.8484 8.42128C11.8484 6.86706 12.4018 5.53657 13.5085 4.42981C14.6153 3.32304 15.9458 2.76965 17.5 2.76965ZM17.5006 11.7281C18.4101 11.7281 19.1885 11.4043 19.8358 10.7566C20.4832 10.1089 20.8069 9.33027 20.8069 8.42073C20.8069 7.51122 20.483 6.73278 19.8353 6.08542C19.1876 5.43809 18.409 5.11442 17.4995 5.11442C16.5899 5.11442 15.8115 5.43827 15.1642 6.08597C14.5168 6.73367 14.1931 7.51227 14.1931 8.42179C14.1931 9.33133 14.517 10.1098 15.1647 10.7571C15.8124 11.4045 16.591 11.7281 17.5006 11.7281Z" fill="#FFA144"/>
</g>
</svg>
