<svg width="32" height="33" viewBox="0 0 32 33" fill="none" xmlns="http://www.w3.org/2000/svg">
<g clip-path="url(#clip0_818_13533)">
<path d="M16 0.682129C7.17774 0.682129 0 7.85987 0 16.6821C0 25.5044 7.17774 32.6821 16 32.6821C24.823 32.6821 32 25.5044 32 16.6821C32 7.85987 24.823 0.682129 16 0.682129ZM22.9377 19.8369C24.4939 21.2185 24.8174 21.7117 24.8703 21.7959C25.5151 22.8185 24.1551 22.943 24.1551 22.943H21.289C21.289 22.943 20.5913 22.9507 19.9951 22.5555C19.0233 21.919 18.0056 20.6849 17.2904 20.8992C16.6901 21.0787 16.6957 21.8898 16.6957 22.5833C16.6957 22.8317 16.4821 22.943 16 22.943C15.5179 22.943 15.3176 22.943 15.104 22.943C13.5339 22.943 11.8303 22.4143 10.1308 20.6383C7.72661 18.1277 5.61809 13.0703 5.61809 13.0703C5.61809 13.0703 5.49357 12.8157 5.62922 12.6606C5.78296 12.4867 6.20104 12.5089 6.20104 12.5089L8.98017 12.5082C8.98017 12.5082 9.24174 12.5576 9.42957 12.6898C9.5847 12.7983 9.67096 13.0056 9.67096 13.0056C9.67096 13.0056 10.1377 14.5472 10.7325 15.5301C11.8943 17.4487 12.4348 17.4974 12.8292 17.2908C13.4052 16.9917 13.2174 14.952 13.2174 14.952C13.2174 14.952 13.2431 14.0762 12.9426 13.686C12.711 13.384 12.2678 13.2233 12.0744 13.1983C11.9179 13.1781 12.1795 12.904 12.5127 12.7475C12.9579 12.5493 13.5638 12.4985 14.6087 12.5082C15.4219 12.5159 15.6563 12.5646 15.9736 12.6376C16.9329 12.8588 16.6957 13.4425 16.6957 15.4919C16.6957 16.1486 16.6052 17.0717 17.1005 17.3778C17.3141 17.51 18.0459 17.6713 19.3482 15.5566C19.9666 14.5534 20.4584 12.8894 20.4584 12.8894C20.4584 12.8894 20.56 12.7065 20.7179 12.616C20.8793 12.5235 20.8744 12.5256 21.0957 12.5256C21.3169 12.5256 23.5353 12.5082 24.0223 12.5082C24.5085 12.5082 24.9649 12.5027 25.0435 12.7879C25.1562 13.1976 24.6845 14.6014 23.4894 16.1249C21.5256 18.6251 21.3078 18.3913 22.9377 19.8369Z" fill="white"/>
</g>
<defs>
<clipPath id="clip0_818_13533">
<rect width="32" height="32" fill="white" transform="translate(0 0.682129)"/>
</clipPath>
</defs>
</svg>
