<svg width="32" height="33" viewBox="0 0 32 33" fill="none" xmlns="http://www.w3.org/2000/svg">
<circle cx="16" cy="16.6821" r="16" fill="white"/>
<path d="M23.5534 13.3875C23.4055 12.6177 22.7007 12.0572 21.8829 11.8822C20.6591 11.6375 18.3941 11.4625 15.9434 11.4625C13.4943 11.4625 11.193 11.6375 9.96774 11.8822C9.15135 12.0572 8.44517 12.5822 8.29726 13.3875C8.14791 14.2625 8 15.4875 8 17.0625C8 18.6375 8.14791 19.8625 8.33351 20.7375C8.48287 21.5072 9.1876 22.0677 10.004 22.2427C11.3032 22.4875 13.5305 22.6625 15.9811 22.6625C18.4318 22.6625 20.6591 22.4875 21.9583 22.2427C22.7747 22.0677 23.4794 21.5427 23.6288 20.7375C23.7767 19.8625 23.9623 18.6019 24 17.0625C23.9246 15.4875 23.739 14.2625 23.5534 13.3875ZM13.9395 19.5125V14.6125L18.468 17.0625L13.9395 19.5125Z" fill="#356169"/>
</svg>
