<svg width="20" height="20" viewBox="0 0 20 20" fill="none" xmlns="http://www.w3.org/2000/svg">
<mask id="mask0_818_4844" style="mask-type:alpha" maskUnits="userSpaceOnUse" x="0" y="0" width="20" height="20">
<rect width="20" height="20" fill="#D9D9D9"/>
</mask>
<g mask="url(#mask0_818_4844)">
<path d="M9.99992 10.0001C10.4583 10.0001 10.8506 9.83689 11.177 9.5105C11.5034 9.18411 11.6666 8.79175 11.6666 8.33341C11.6666 7.87508 11.5034 7.48272 11.177 7.15633C10.8506 6.82994 10.4583 6.66675 9.99992 6.66675C9.54158 6.66675 9.14922 6.82994 8.82284 7.15633C8.49645 7.48272 8.33325 7.87508 8.33325 8.33341C8.33325 8.79175 8.49645 9.18411 8.82284 9.5105C9.14922 9.83689 9.54158 10.0001 9.99992 10.0001ZM9.99992 16.1251C11.6944 14.5695 12.9513 13.1563 13.7708 11.8855C14.5902 10.6147 14.9999 9.48619 14.9999 8.50008C14.9999 6.98619 14.5173 5.74661 13.552 4.78133C12.5867 3.81605 11.4027 3.33341 9.99992 3.33341C8.59714 3.33341 7.41311 3.81605 6.44784 4.78133C5.48256 5.74661 4.99992 6.98619 4.99992 8.50008C4.99992 9.48619 5.40964 10.6147 6.22909 11.8855C7.04853 13.1563 8.30547 14.5695 9.99992 16.1251ZM9.99992 18.3334C7.76381 16.4306 6.09367 14.6633 4.9895 13.0313C3.88534 11.3994 3.33325 9.88897 3.33325 8.50008C3.33325 6.41675 4.00339 4.75703 5.34367 3.52091C6.68395 2.2848 8.23603 1.66675 9.99992 1.66675C11.7638 1.66675 13.3159 2.2848 14.6562 3.52091C15.9964 4.75703 16.6666 6.41675 16.6666 8.50008C16.6666 9.88897 16.1145 11.3994 15.0103 13.0313C13.9062 14.6633 12.236 16.4306 9.99992 18.3334Z" fill="#FFA144"/>
</g>
</svg>
