<svg width="73" height="73" viewBox="0 0 73 73" fill="none" xmlns="http://www.w3.org/2000/svg">
<circle cx="36.5" cy="36.5" r="36.5" fill="white"/>
<circle cx="36.5" cy="36.5" r="32.1979" stroke="url(#paint0_linear_1041_16128)"/>
<path d="M7.98438 56.2709H65.3958L57.4873 66.3464H15.9687L7.98438 56.2709Z" fill="white"/>
<circle cx="36.5" cy="36.5" r="22.8716" fill="url(#paint1_linear_1041_16128)"/>
<path d="M14.9498 64.1313C14.8583 64.1313 14.7933 64.0807 14.7548 63.9796C14.7211 63.8832 14.7042 63.7965 14.7042 63.7195C14.7042 63.522 14.7548 63.3631 14.8559 63.2427C14.9619 63.1271 15.0919 63.0428 15.246 62.9899C15.4049 62.9369 15.5639 62.9104 15.7228 62.9104C15.9154 62.9104 16.0984 62.9417 16.2718 63.0043C16.45 63.0669 16.6258 63.1368 16.7992 63.2138C16.9725 63.2957 17.1459 63.3679 17.3193 63.4305C17.4975 63.4931 17.6829 63.5244 17.8755 63.5244C18.0778 63.5244 18.2295 63.4691 18.3306 63.3583C18.4366 63.2475 18.4896 63.1247 18.4896 62.9899C18.4896 62.8309 18.4318 62.6841 18.3162 62.5492C18.2006 62.4192 18.0031 62.3542 17.7238 62.3542H14.2708C14.1263 62.3542 13.9866 62.3542 13.8518 62.3542C13.7217 62.359 13.5797 62.3662 13.4256 62.3758C13.3774 62.3758 13.3437 62.359 13.3244 62.3253C13.3052 62.2916 13.2955 62.2554 13.2955 62.2169C13.3003 62.135 13.3196 62.0893 13.3533 62.0797C13.387 62.07 13.428 62.0652 13.4761 62.0652C13.6302 62.0652 13.7386 62.0387 13.8012 61.9857C13.8638 61.928 13.9023 61.8581 13.9168 61.7762C13.9361 61.6896 13.9457 61.6005 13.9457 61.509V58.641C13.9457 58.5495 13.9361 58.4629 13.9168 58.381C13.9023 58.2943 13.8638 58.2245 13.8012 58.1715C13.7386 58.1137 13.6302 58.0848 13.4761 58.0848C13.428 58.0848 13.387 58.08 13.3533 58.0704C13.3196 58.0607 13.3003 58.015 13.2955 57.9331C13.2955 57.8946 13.3052 57.8585 13.3244 57.8247C13.3437 57.791 13.3774 57.7742 13.4256 57.7742C13.5797 57.779 13.7217 57.7838 13.8518 57.7886C13.9818 57.7934 14.1191 57.7958 14.2635 57.7958C14.4032 57.7958 14.5525 57.7934 14.7114 57.7886C14.8752 57.7838 15.0341 57.779 15.1882 57.7742C15.2316 57.7742 15.2629 57.791 15.2821 57.8247C15.3014 57.8585 15.311 57.8946 15.311 57.9331C15.3062 58.015 15.2869 58.0607 15.2532 58.0704C15.2243 58.08 15.1834 58.0848 15.1304 58.0848C14.9811 58.0848 14.8728 58.1137 14.8053 58.1715C14.7427 58.2245 14.7042 58.2943 14.6898 58.381C14.6753 58.4629 14.6657 58.5495 14.6609 58.641V61.4656C14.6609 61.7064 14.6994 61.8678 14.7764 61.9496C14.8535 62.0267 14.9956 62.0652 15.2027 62.0652H16.8569V58.641C16.8569 58.5495 16.8473 58.4629 16.828 58.381C16.8136 58.2943 16.7751 58.2245 16.7125 58.1715C16.6499 58.1137 16.5415 58.0848 16.3874 58.0848C16.3392 58.0848 16.2959 58.08 16.2574 58.0704C16.2236 58.0607 16.2044 58.015 16.1996 57.9331C16.1996 57.8946 16.2092 57.8585 16.2285 57.8247C16.2525 57.791 16.2863 57.7742 16.3296 57.7742C16.4837 57.779 16.6306 57.7838 16.7703 57.7886C16.9099 57.7934 17.052 57.7958 17.1965 57.7958C17.4854 57.7958 17.784 57.7886 18.0922 57.7742C18.1356 57.7742 18.1669 57.791 18.1862 57.8247C18.2102 57.8585 18.2223 57.8946 18.2223 57.9331C18.2175 58.015 18.1982 58.0607 18.1645 58.0704C18.1308 58.08 18.0874 58.0848 18.0344 58.0848C17.8852 58.0848 17.7768 58.1137 17.7094 58.1715C17.6468 58.2245 17.6082 58.2943 17.5938 58.381C17.5793 58.4629 17.5697 58.5495 17.5649 58.641V61.3934C17.5649 61.5619 17.5938 61.692 17.6516 61.7835C17.7094 61.875 17.784 61.9472 17.8755 62.0002C17.967 62.0484 18.0633 62.0917 18.1645 62.1302C18.2704 62.1687 18.3692 62.2169 18.4607 62.2747C18.557 62.3325 18.6364 62.4144 18.6991 62.5203C18.7665 62.6311 18.805 62.7852 18.8146 62.9826C18.8146 63.315 18.7063 63.5895 18.4896 63.8062C18.2777 64.0229 17.9405 64.1313 17.4782 64.1313C17.2615 64.1313 17.0592 64.0975 16.8714 64.0301C16.6836 63.9627 16.5054 63.8832 16.3368 63.7917C16.1683 63.7002 16.0045 63.6208 15.8456 63.5533C15.6867 63.4859 15.5277 63.4522 15.3688 63.4522C15.2388 63.4522 15.14 63.4835 15.0726 63.5461C15.01 63.6087 14.9787 63.681 14.9787 63.7628C14.9787 63.8206 14.998 63.8688 15.0365 63.9073C15.075 63.9458 15.0943 63.9771 15.0943 64.0012C15.0943 64.0349 15.0799 64.0638 15.051 64.0879C15.0221 64.1168 14.9883 64.1313 14.9498 64.1313Z" fill="#356169"/>
<path d="M19.3162 62.3758C19.268 62.3758 19.2343 62.359 19.2151 62.3253C19.1958 62.2916 19.1862 62.2554 19.1862 62.2169C19.191 62.135 19.2102 62.0893 19.244 62.0797C19.2777 62.07 19.3186 62.0652 19.3668 62.0652C19.5209 62.0652 19.6292 62.0387 19.6918 61.9857C19.7544 61.928 19.793 61.8581 19.8074 61.7762C19.8267 61.6896 19.8363 61.6005 19.8363 61.509V58.641C19.8363 58.5495 19.8267 58.4629 19.8074 58.381C19.793 58.2943 19.7544 58.2245 19.6918 58.1715C19.6292 58.1137 19.5209 58.0848 19.3668 58.0848C19.3186 58.0848 19.2777 58.08 19.244 58.0704C19.2102 58.0607 19.191 58.015 19.1862 57.9331C19.1862 57.8946 19.1958 57.8585 19.2151 57.8247C19.2343 57.791 19.268 57.7742 19.3162 57.7742C19.4703 57.779 19.6148 57.7838 19.7496 57.7886C19.8845 57.7934 20.0241 57.7958 20.1686 57.7958H22.4875C22.5405 57.7958 22.5838 57.8079 22.6175 57.832C22.6561 57.856 22.6753 57.9018 22.6753 57.9692L22.697 58.9878C22.697 59.036 22.6777 59.0721 22.6392 59.0962C22.6007 59.1202 22.5622 59.1323 22.5236 59.1323C22.4707 59.1323 22.4177 59.1226 22.3647 59.1034C22.3165 59.0793 22.2876 59.0456 22.278 59.0022C22.2443 58.7855 22.2034 58.6122 22.1552 58.4821C22.1119 58.3473 22.0444 58.2485 21.9529 58.1859C21.8663 58.1233 21.7386 58.0896 21.5701 58.0848H20.5515V59.6957C20.8212 59.6524 21.0692 59.6307 21.2956 59.6307C21.6905 59.6307 22.018 59.6909 22.278 59.8113C22.5429 59.9269 22.7404 60.0858 22.8704 60.2881C23.0052 60.4856 23.0727 60.7119 23.0727 60.9672C23.0727 61.2417 23.01 61.468 22.8848 61.6462C22.7596 61.8244 22.5959 61.9665 22.3936 62.0724C22.1913 62.1784 21.9722 62.253 21.7362 62.2964C21.5051 62.3397 21.2811 62.3614 21.0644 62.3614L20.1758 62.3542C20.0314 62.3542 19.8893 62.3542 19.7496 62.3542C19.6148 62.359 19.4703 62.3662 19.3162 62.3758ZM21.0861 62.0652C21.3028 62.0604 21.5002 62.0267 21.6784 61.9641C21.8566 61.8966 21.9987 61.7859 22.1046 61.6318C22.2154 61.4728 22.2708 61.2537 22.2708 60.9744C22.2708 60.7191 22.2082 60.5169 22.083 60.3676C21.9578 60.2183 21.7988 60.1123 21.6062 60.0497C21.4135 59.9823 21.2137 59.9486 21.0066 59.9486C20.9295 59.9486 20.8525 59.951 20.7754 59.9558C20.6984 59.9606 20.6237 59.9727 20.5515 59.9919V61.4656C20.5515 61.7064 20.59 61.8678 20.6671 61.9496C20.7441 62.0267 20.8838 62.0652 21.0861 62.0652Z" fill="#356169"/>
<path d="M26.06 62.4986C25.6554 62.4986 25.2846 62.4023 24.9475 62.2097C24.6104 62.017 24.3383 61.7425 24.1312 61.3862C23.9289 61.0298 23.8278 60.6036 23.8278 60.1075C23.8278 59.6163 23.9241 59.1877 24.1167 58.8216C24.3094 58.4508 24.5815 58.1643 24.933 57.962C25.2894 57.7549 25.7084 57.6514 26.19 57.6514C26.3634 57.6514 26.5416 57.6682 26.7246 57.7019C26.9124 57.7356 27.0858 57.7934 27.2447 57.8753C27.4036 57.9524 27.5313 58.0559 27.6276 58.1859C27.7287 58.316 27.7793 58.4773 27.7793 58.6699C27.7841 58.877 27.7215 59.06 27.5915 59.219C27.4614 59.3731 27.2784 59.4501 27.0424 59.4501C26.898 59.4501 26.7944 59.4164 26.7318 59.349C26.674 59.2768 26.6475 59.2238 26.6523 59.1901C26.6523 59.1756 26.6812 59.1515 26.739 59.1178C26.8016 59.0793 26.8618 59.0239 26.9196 58.9517C26.9822 58.8746 27.0135 58.7735 27.0135 58.6483C27.0135 58.4316 26.9413 58.2606 26.7968 58.1354C26.6523 58.0053 26.4477 57.9403 26.1828 57.9403C25.8938 57.9403 25.6338 58.0222 25.4026 58.1859C25.1763 58.3497 24.9981 58.5905 24.868 58.9083C24.738 59.2214 24.673 59.6067 24.673 60.0642C24.673 60.4494 24.7404 60.801 24.8753 61.1189C25.0149 61.4319 25.2076 61.6823 25.4532 61.8702C25.7036 62.0532 25.9926 62.1447 26.32 62.1447C26.5801 62.1447 26.8016 62.0917 26.9847 61.9857C27.1725 61.875 27.341 61.6992 27.4903 61.4584C27.5337 61.3765 27.6107 61.3693 27.7215 61.4367C27.7648 61.4656 27.7986 61.5017 27.8226 61.5451C27.8467 61.5836 27.8419 61.6245 27.8082 61.6679C27.6252 61.8991 27.4518 62.0748 27.2881 62.1952C27.1243 62.3108 26.9461 62.3903 26.7535 62.4336C26.5608 62.477 26.3297 62.4986 26.06 62.4986Z" fill="#356169"/>
<path d="M30.0644 62.3758C30.0307 62.3758 30.0042 62.3614 29.985 62.3325C29.9657 62.2988 29.9561 62.2651 29.9561 62.2314C29.9609 62.1591 29.9777 62.1206 30.0066 62.1158C30.0355 62.1061 30.0741 62.1013 30.1222 62.1013C30.2571 62.1013 30.3486 62.0797 30.3967 62.0363C30.4449 61.9882 30.4714 61.9255 30.4762 61.8485C30.4858 61.7714 30.4906 61.692 30.4906 61.6101V59.8258C30.4906 59.7391 30.4858 59.6596 30.4762 59.5874C30.4714 59.5103 30.4449 59.4501 30.3967 59.4068C30.3486 59.3586 30.2571 59.3345 30.1222 59.3345C30.0741 59.3345 30.0355 59.3321 30.0066 59.3273C29.9777 59.3177 29.9609 59.2768 29.9561 59.2045C29.9561 59.166 29.9657 59.1323 29.985 59.1034C30.0042 59.0745 30.0307 59.06 30.0644 59.06C30.2041 59.0649 30.3317 59.0697 30.4473 59.0745C30.5677 59.0793 30.6905 59.0817 30.8157 59.0817H32.5856C32.6337 59.0817 32.6723 59.0938 32.7012 59.1178C32.7349 59.1371 32.7517 59.1804 32.7517 59.2479L32.7734 60.1653C32.7734 60.2086 32.7566 60.2424 32.7228 60.2664C32.6891 60.2857 32.653 60.2953 32.6145 60.2953C32.5663 60.2953 32.5206 60.2857 32.4772 60.2664C32.4387 60.2472 32.4146 60.2183 32.405 60.1798C32.3761 59.9775 32.34 59.8137 32.2966 59.6885C32.2581 59.5633 32.1979 59.4694 32.116 59.4068C32.039 59.3442 31.9234 59.3129 31.7693 59.3129H31.1552V61.6101C31.1601 61.716 31.1625 61.8076 31.1625 61.8846C31.1673 61.9568 31.1914 62.0122 31.2347 62.0508C31.2781 62.0893 31.3575 62.1061 31.4731 62.1013C31.5116 62.1013 31.5453 62.1061 31.5742 62.1158C31.6079 62.1206 31.6272 62.1591 31.632 62.2314C31.632 62.2651 31.6224 62.2988 31.6031 62.3325C31.5839 62.3614 31.555 62.3758 31.5164 62.3758C31.3816 62.3662 31.2612 62.359 31.1552 62.3542C31.0541 62.3542 30.9409 62.3542 30.8157 62.3542C30.6905 62.3542 30.5677 62.3542 30.4473 62.3542C30.3317 62.359 30.2041 62.3662 30.0644 62.3758Z" fill="#356169"/>
<path d="M33.0444 62.4409C32.9144 62.4409 32.806 62.3999 32.7193 62.318C32.6327 62.2314 32.5893 62.1206 32.5893 61.9857C32.5893 61.8605 32.6327 61.7546 32.7193 61.6679C32.806 61.5812 32.9168 61.5379 33.0516 61.5379C33.1817 61.5379 33.29 61.5812 33.3767 61.6679C33.4682 61.7546 33.514 61.8605 33.514 61.9857C33.514 62.1206 33.4682 62.2314 33.3767 62.318C33.29 62.3999 33.1793 62.4409 33.0444 62.4409Z" fill="#356169"/>
<path d="M35.9581 62.3758C35.9099 62.3758 35.8762 62.359 35.857 62.3253C35.8377 62.2916 35.8281 62.2554 35.8281 62.2169C35.8329 62.135 35.8522 62.0893 35.8859 62.0797C35.9196 62.07 35.9605 62.0652 36.0087 62.0652C36.1628 62.0652 36.2711 62.0387 36.3338 61.9857C36.3964 61.928 36.4349 61.8581 36.4493 61.7762C36.4686 61.6896 36.4782 61.6005 36.4782 61.509V58.641C36.4782 58.5495 36.4686 58.4629 36.4493 58.381C36.4349 58.2943 36.3964 58.2245 36.3338 58.1715C36.2711 58.1137 36.1628 58.0848 36.0087 58.0848C35.9605 58.0848 35.9196 58.08 35.8859 58.0704C35.8522 58.0607 35.8329 58.015 35.8281 57.9331C35.8281 57.8946 35.8377 57.8585 35.857 57.8247C35.8762 57.791 35.9099 57.7742 35.9581 57.7742C36.1122 57.779 36.2567 57.7838 36.3915 57.7886C36.5264 57.7934 36.6661 57.7958 36.8105 57.7958H39.6207C39.9096 57.7958 40.2082 57.7886 40.5164 57.7742C40.5598 57.7742 40.5911 57.791 40.6103 57.8247C40.6344 57.8585 40.6465 57.8946 40.6465 57.9331C40.6416 58.015 40.6224 58.0607 40.5887 58.0704C40.555 58.08 40.5116 58.0848 40.4586 58.0848C40.3093 58.0848 40.201 58.1137 40.1336 58.1715C40.0709 58.2245 40.0324 58.2943 40.018 58.381C40.0035 58.4629 39.9939 58.5495 39.9891 58.641V61.509C39.9939 61.6005 40.0035 61.6896 40.018 61.7762C40.0324 61.8581 40.0709 61.928 40.1336 61.9857C40.201 62.0387 40.3093 62.0652 40.4586 62.0652C40.5116 62.0652 40.555 62.07 40.5887 62.0797C40.6224 62.0893 40.6416 62.135 40.6465 62.2169C40.6465 62.2554 40.6344 62.2916 40.6103 62.3253C40.5911 62.359 40.5598 62.3758 40.5164 62.3758C40.2082 62.3614 39.9072 62.3542 39.6134 62.3542C39.469 62.3542 39.3269 62.3542 39.1872 62.3542C39.0524 62.359 38.9079 62.3662 38.7538 62.3758C38.7056 62.3758 38.6719 62.359 38.6526 62.3253C38.6334 62.2916 38.6237 62.2554 38.6237 62.2169C38.6286 62.135 38.6478 62.0893 38.6815 62.0797C38.7152 62.07 38.7562 62.0652 38.8043 62.0652C38.9585 62.0652 39.0668 62.0387 39.1294 61.9857C39.192 61.928 39.2306 61.8581 39.245 61.7762C39.2643 61.6896 39.2763 61.6005 39.2811 61.509V58.0848H37.663C37.4992 58.0752 37.3836 58.0968 37.3162 58.1498C37.2536 58.2028 37.2175 58.2726 37.2079 58.3593C37.1982 58.446 37.1934 58.5399 37.1934 58.641V61.509C37.1982 61.6005 37.2079 61.6896 37.2223 61.7762C37.2367 61.8581 37.2753 61.928 37.3379 61.9857C37.4053 62.0387 37.5137 62.0652 37.663 62.0652C37.7159 62.0652 37.7569 62.07 37.7858 62.0797C37.8195 62.0893 37.8387 62.135 37.8436 62.2169C37.8436 62.2554 37.8339 62.2916 37.8147 62.3253C37.7954 62.359 37.7617 62.3758 37.7135 62.3758C37.4053 62.3614 37.1067 62.3542 36.8178 62.3542C36.6733 62.3542 36.5312 62.3542 36.3915 62.3542C36.2567 62.359 36.1122 62.3662 35.9581 62.3758Z" fill="#356169"/>
<path d="M42.4735 62.4409C41.9775 62.4409 41.5898 62.2843 41.3104 61.9713C41.0359 61.6534 40.8987 61.2345 40.8987 60.7143C40.9131 60.382 40.995 60.0882 41.1443 59.833C41.2984 59.5778 41.5007 59.3779 41.7511 59.2334C42.0063 59.0841 42.2881 59.0047 42.5963 58.995C42.7649 58.995 42.9358 59.0167 43.1092 59.06C43.2874 59.0986 43.4343 59.1732 43.5499 59.284C43.6703 59.3899 43.7305 59.544 43.7305 59.7463C43.7305 59.886 43.6871 60.016 43.6004 60.1364C43.5137 60.252 43.3933 60.3098 43.2392 60.3098C43.1333 60.3098 43.0514 60.2833 42.9936 60.2303C42.9358 60.1773 42.9069 60.1388 42.9069 60.1147C42.9069 60.1051 42.9262 60.0858 42.9647 60.0569C43.0081 60.0232 43.049 59.9799 43.0875 59.9269C43.1261 59.8691 43.1453 59.7993 43.1453 59.7174C43.1453 59.5633 43.0899 59.4501 42.9792 59.3779C42.8684 59.3057 42.7432 59.2671 42.6035 59.2623C42.3916 59.2623 42.2207 59.3057 42.0906 59.3923C41.9654 59.479 41.8691 59.5946 41.8017 59.7391C41.7342 59.8788 41.6885 60.0329 41.6644 60.2014C41.6451 60.37 41.6355 60.5337 41.6355 60.6927C41.6355 60.9575 41.6765 61.1959 41.7583 61.4078C41.8402 61.6149 41.9558 61.7787 42.1051 61.8991C42.2544 62.0195 42.4326 62.0797 42.6396 62.0797C42.8515 62.0797 43.0297 62.0339 43.1742 61.9424C43.3187 61.8509 43.4511 61.716 43.5715 61.5379C43.6053 61.4897 43.6558 61.4849 43.7232 61.5234C43.757 61.5427 43.781 61.5692 43.7955 61.6029C43.8099 61.6366 43.8051 61.6703 43.781 61.704C43.6221 61.9304 43.4247 62.111 43.1887 62.2458C42.9527 62.3758 42.7143 62.4409 42.4735 62.4409Z" fill="#356169"/>
<path d="M47.4697 62.4047C47.277 62.4095 47.1205 62.3734 47.0001 62.2964C46.8845 62.2193 46.7882 62.1182 46.7111 61.993C46.6341 61.8678 46.5643 61.7329 46.5016 61.5884C46.4439 61.4439 46.3812 61.3067 46.3138 61.1767C46.2464 61.0466 46.1621 60.9407 46.061 60.8588C45.9598 60.7769 45.825 60.736 45.6564 60.736H45.4325V61.6101C45.4325 61.692 45.4349 61.7714 45.4397 61.8485C45.4494 61.9255 45.4782 61.9882 45.5264 62.0363C45.5794 62.0797 45.6733 62.1013 45.8081 62.1013C45.8515 62.1013 45.8876 62.1061 45.9165 62.1158C45.9502 62.1206 45.9695 62.1591 45.9743 62.2314C45.9743 62.2651 45.9647 62.2988 45.9454 62.3325C45.9261 62.3614 45.8972 62.3758 45.8587 62.3758C45.719 62.3662 45.589 62.359 45.4686 62.3542C45.353 62.3542 45.2302 62.3542 45.1002 62.3542C44.975 62.3542 44.8618 62.3542 44.7607 62.3542C44.6595 62.359 44.5391 62.3662 44.3995 62.3758C44.3658 62.3758 44.3393 62.3614 44.32 62.3325C44.3007 62.2988 44.2911 62.2651 44.2911 62.2314C44.2959 62.1591 44.3128 62.1206 44.3417 62.1158C44.3706 62.1061 44.4067 62.1013 44.45 62.1013C44.5656 62.1061 44.6451 62.0893 44.6884 62.0508C44.7318 62.0122 44.7559 61.9568 44.7607 61.8846C44.7655 61.8076 44.7679 61.716 44.7679 61.6101V59.8258C44.7679 59.7198 44.7655 59.6307 44.7607 59.5585C44.7559 59.4814 44.7318 59.4236 44.6884 59.3851C44.6451 59.3466 44.5656 59.3297 44.45 59.3345C44.4067 59.3345 44.3706 59.3321 44.3417 59.3273C44.3128 59.3177 44.2959 59.2768 44.2911 59.2045C44.2911 59.166 44.3007 59.1323 44.32 59.1034C44.3393 59.0745 44.3658 59.06 44.3995 59.06C44.5391 59.0649 44.6595 59.0697 44.7607 59.0745C44.8618 59.0793 44.975 59.0817 45.1002 59.0817C45.2302 59.0817 45.353 59.0793 45.4686 59.0745C45.589 59.0697 45.719 59.0649 45.8587 59.06C45.8972 59.06 45.9261 59.0745 45.9454 59.1034C45.9647 59.1323 45.9743 59.166 45.9743 59.2045C45.9695 59.2768 45.9502 59.3177 45.9165 59.3273C45.8876 59.3321 45.8515 59.3345 45.8081 59.3345C45.6733 59.3345 45.5794 59.3586 45.5264 59.4068C45.4782 59.4501 45.4494 59.5103 45.4397 59.5874C45.4349 59.6596 45.4325 59.7391 45.4325 59.8258V60.5193H45.7648C45.9719 60.5193 46.1477 60.3796 46.2921 60.1003C46.3499 59.9992 46.4029 59.8884 46.4511 59.768C46.4992 59.6428 46.5546 59.5248 46.6172 59.414C46.6798 59.2984 46.7593 59.2021 46.8556 59.1251C46.9519 59.048 47.0747 59.0047 47.224 58.995C47.4167 58.995 47.5636 59.0528 47.6647 59.1684C47.7658 59.284 47.8164 59.4044 47.8164 59.5296C47.8164 59.6211 47.7923 59.6982 47.7442 59.7608C47.696 59.8234 47.6406 59.8715 47.578 59.9052C47.5202 59.939 47.4721 59.9558 47.4335 59.9558C47.395 59.9558 47.3757 59.9414 47.3757 59.9125C47.3757 59.8161 47.3517 59.7319 47.3035 59.6596C47.2553 59.5874 47.1903 59.5513 47.1085 59.5513C46.9929 59.5513 46.9014 59.5874 46.8339 59.6596C46.7665 59.7271 46.7135 59.8089 46.675 59.9052C46.6365 59.9967 46.6004 60.0786 46.5667 60.1509C46.5137 60.2472 46.4559 60.3315 46.3933 60.4037C46.3307 60.4759 46.2608 60.5313 46.1838 60.5698V60.5843C46.4005 60.5939 46.5739 60.6541 46.7039 60.7649C46.8388 60.8708 46.9471 61.0009 47.029 61.155C47.1109 61.3091 47.1807 61.4632 47.2385 61.6173C47.3011 61.7666 47.3613 61.8894 47.4191 61.9857C47.4817 62.0821 47.5612 62.1254 47.6575 62.1158C47.7249 62.1061 47.7755 62.0821 47.8092 62.0435C47.8429 62.005 47.8718 61.9665 47.8959 61.928C47.9199 61.8846 47.9464 61.8629 47.9753 61.8629C48.0187 61.8581 48.05 61.8726 48.0692 61.9063C48.0885 61.9352 48.0933 61.9689 48.0837 62.0074C48.0548 62.1519 47.9729 62.2554 47.8381 62.318C47.708 62.3758 47.5852 62.4047 47.4697 62.4047Z" fill="#356169"/>
<path d="M50.0598 62.4409C49.7227 62.4409 49.4265 62.3614 49.1712 62.2025C48.9208 62.0435 48.7258 61.8364 48.5861 61.5812C48.4464 61.326 48.3766 61.0539 48.3766 60.7649C48.3766 60.4808 48.4272 60.2279 48.5283 60.0064C48.6294 59.7848 48.7619 59.5994 48.9256 59.4501C49.0942 59.3008 49.2772 59.1877 49.4746 59.1106C49.6721 59.0336 49.8671 58.995 50.0598 58.995C50.3969 58.995 50.6907 59.0745 50.9411 59.2334C51.1964 59.3923 51.3938 59.5994 51.5335 59.8547C51.6731 60.1099 51.743 60.382 51.743 60.671C51.743 60.9551 51.69 61.208 51.584 61.4295C51.4829 61.651 51.3481 61.8364 51.1795 61.9857C51.0158 62.135 50.8352 62.2482 50.6377 62.3253C50.4402 62.4023 50.2476 62.4409 50.0598 62.4409ZM50.0598 62.1736C50.2958 62.1736 50.4812 62.1037 50.616 61.9641C50.7557 61.8244 50.8544 61.6414 50.9122 61.415C50.9748 61.1839 51.0061 60.9359 51.0061 60.671C51.0061 60.4157 50.9748 60.1822 50.9122 59.9703C50.8496 59.7584 50.7485 59.5874 50.6088 59.4574C50.4691 59.3273 50.2861 59.2623 50.0598 59.2623C49.8238 59.2623 49.636 59.3321 49.4963 59.4718C49.3566 59.6067 49.2579 59.7873 49.2001 60.0136C49.1423 60.2351 49.1134 60.4808 49.1134 60.7504C49.1134 61.0009 49.1423 61.2345 49.2001 61.4512C49.2627 61.6679 49.3639 61.8437 49.5035 61.9785C49.6432 62.1085 49.8286 62.1736 50.0598 62.1736Z" fill="#356169"/>
<path d="M52.3642 62.3758C52.3305 62.3758 52.3016 62.3614 52.2775 62.3325C52.2582 62.2988 52.2486 62.2651 52.2486 62.2314C52.2534 62.1591 52.2703 62.1206 52.2992 62.1158C52.3329 62.1061 52.3714 62.1013 52.4147 62.1013C52.5496 62.1013 52.6411 62.0797 52.6892 62.0363C52.7422 61.9882 52.7711 61.9255 52.7759 61.8485C52.7856 61.7714 52.7904 61.692 52.7904 61.6101V59.8258C52.7904 59.7391 52.7856 59.6596 52.7759 59.5874C52.7711 59.5103 52.7422 59.4501 52.6892 59.4068C52.6411 59.3586 52.5496 59.3345 52.4147 59.3345C52.3714 59.3345 52.3329 59.3321 52.2992 59.3273C52.2703 59.3177 52.2534 59.2768 52.2486 59.2045C52.2486 59.166 52.2582 59.1323 52.2775 59.1034C52.3016 59.0745 52.3305 59.06 52.3642 59.06C52.5038 59.0649 52.6315 59.0697 52.747 59.0745C52.8626 59.0793 52.9854 59.0817 53.1155 59.0817H54.1702C54.4013 59.0817 54.606 59.1034 54.7842 59.1467C54.9672 59.1853 55.1093 59.2575 55.2104 59.3634C55.3164 59.4694 55.3693 59.6235 55.3693 59.8258C55.3693 59.9799 55.326 60.1099 55.2393 60.2159C55.1574 60.3218 55.0563 60.4061 54.9359 60.4687C54.8203 60.5313 54.712 60.5747 54.6108 60.5987V60.6132C54.8083 60.6228 54.9768 60.6734 55.1165 60.7649C55.261 60.8516 55.3717 60.9599 55.4488 61.09C55.5259 61.22 55.5644 61.3573 55.5644 61.5017C55.5644 61.704 55.4921 61.8702 55.3477 62.0002C55.2032 62.1254 55.0202 62.2169 54.7986 62.2747C54.5819 62.3325 54.3604 62.3614 54.134 62.3614C54.0618 62.3614 53.9558 62.359 53.8162 62.3542C53.6765 62.3542 53.4429 62.3542 53.1155 62.3542C52.9854 62.3542 52.8626 62.3542 52.747 62.3542C52.6315 62.359 52.5038 62.3662 52.3642 62.3758ZM53.455 60.5048H53.6862C53.7584 60.5048 53.8475 60.5024 53.9534 60.4976C54.0594 60.488 54.1629 60.4663 54.2641 60.4326C54.37 60.3941 54.4567 60.3315 54.5241 60.2448C54.5964 60.1581 54.6325 60.0377 54.6325 59.8836C54.6325 59.7054 54.5771 59.5633 54.4663 59.4574C54.3604 59.3466 54.1918 59.2912 53.9607 59.2912H53.455V60.5048ZM53.9823 62.1447C54.2376 62.1447 54.4399 62.0821 54.5891 61.9568C54.7384 61.8268 54.8131 61.6655 54.8131 61.4728C54.8131 61.3428 54.7746 61.22 54.6975 61.1044C54.6253 60.9888 54.5073 60.8973 54.3435 60.8299C54.1798 60.7577 53.9607 60.7215 53.6862 60.7215H53.455V61.7329C53.455 61.9015 53.5056 62.0122 53.6067 62.0652C53.7078 62.1182 53.833 62.1447 53.9823 62.1447Z" fill="#356169"/>
<path d="M57.0824 62.4409C56.7886 62.4409 56.5526 62.3566 56.3744 62.188C56.201 62.0195 56.1144 61.8172 56.1144 61.5812C56.1144 61.3356 56.177 61.1429 56.3022 61.0033C56.4322 60.8636 56.6008 60.7601 56.8079 60.6927C57.0198 60.6252 57.2485 60.5795 57.4941 60.5554C57.7446 60.5313 57.9878 60.5121 58.2238 60.4976V59.9269C58.2238 59.7006 58.166 59.5248 58.0504 59.3996C57.9396 59.2695 57.7494 59.2045 57.4797 59.2045C57.3448 59.2045 57.2172 59.2479 57.0968 59.3345C56.9812 59.4212 56.9234 59.5465 56.9234 59.7102C56.9234 59.7873 56.9427 59.8523 56.9812 59.9052C57.0198 59.9582 57.0583 59.9992 57.0968 60.028C57.1353 60.0569 57.1546 60.0762 57.1546 60.0858C57.1546 60.1051 57.1257 60.1412 57.0679 60.1942C57.0149 60.2424 56.9403 60.2664 56.844 60.2664C56.6947 60.2664 56.5791 60.2111 56.4972 60.1003C56.4154 59.9895 56.3744 59.8667 56.3744 59.7319C56.3744 59.5489 56.4298 59.4044 56.5406 59.2984C56.6562 59.1925 56.803 59.1154 56.9812 59.0673C57.1594 59.0191 57.34 58.995 57.523 58.995C57.7398 58.995 57.9492 59.0215 58.1515 59.0745C58.3586 59.1275 58.5272 59.2286 58.6572 59.3779C58.792 59.5272 58.8595 59.7511 58.8595 60.0497V61.7329C58.8643 61.7811 58.8763 61.8389 58.8956 61.9063C58.9148 61.9737 58.951 62.0339 59.0039 62.0869C59.0617 62.135 59.1388 62.1591 59.2351 62.1591C59.2688 62.1591 59.2953 62.1663 59.3146 62.1808C59.3338 62.1904 59.3435 62.2217 59.3435 62.2747C59.3435 62.318 59.3194 62.3518 59.2712 62.3758C59.2231 62.3999 59.1677 62.4168 59.1051 62.4264C59.0425 62.436 58.9895 62.4409 58.9462 62.4409C58.768 62.4409 58.609 62.3903 58.4694 62.2891C58.3297 62.1832 58.2478 62.0387 58.2238 61.8557C58.1178 62.0484 57.9589 62.1952 57.747 62.2964C57.5399 62.3927 57.3184 62.4409 57.0824 62.4409ZM57.3135 62.0508C57.4773 62.0508 57.6266 62.0098 57.7614 61.928C57.9011 61.8461 58.0119 61.7353 58.0937 61.5956C58.1804 61.4512 58.2238 61.2922 58.2238 61.1189V60.7071C57.7277 60.7408 57.3737 60.8203 57.1618 60.9455C56.9499 61.0707 56.844 61.2754 56.844 61.5595C56.844 61.887 57.0005 62.0508 57.3135 62.0508Z" fill="#356169"/>
<path d="M28.5156 33.4662C28.5156 33.0463 28.8561 32.706 29.276 32.706H50.5677C50.9877 32.706 51.3281 33.0463 51.3281 33.4662V53.2295C51.3281 53.6493 50.9877 53.9896 50.5677 53.9896H49.8073V34.4163C49.8073 34.1015 49.552 33.8462 49.237 33.8462H30.2266C29.9116 33.8462 29.6563 34.1015 29.6563 34.4163V53.9896H29.276C28.8561 53.9896 28.5156 53.6493 28.5156 53.2295V33.4662Z" fill="url(#paint2_linear_1041_16128)"/>
<path fill-rule="evenodd" clip-rule="evenodd" d="M49.4271 34.4163V53.9896H30.0365V34.4163C30.0365 34.3114 30.1216 34.2263 30.2266 34.2263H49.237C49.342 34.2263 49.4271 34.3114 49.4271 34.4163ZM34.599 36.1266C34.389 36.1266 34.2188 36.2968 34.2188 36.5067V38.407C34.2188 38.6169 34.389 38.787 34.599 38.787H34.9792C35.1892 38.787 35.3594 38.6169 35.3594 38.407V36.5067C35.3594 36.2968 35.1892 36.1266 34.9792 36.1266H34.599ZM39.1615 36.5067C39.1615 36.2968 39.3317 36.1266 39.5417 36.1266H39.9219C40.1319 36.1266 40.3021 36.2968 40.3021 36.5067V38.407C40.3021 38.6169 40.1319 38.787 39.9219 38.787H39.5417C39.3317 38.787 39.1615 38.6169 39.1615 38.407V36.5067ZM36.8802 43.3478C36.6702 43.3478 36.5 43.518 36.5 43.7279V45.6282C36.5 45.8381 36.6702 46.0082 36.8802 46.0082H37.2604C37.4704 46.0082 37.6406 45.8381 37.6406 45.6282V43.7279C37.6406 43.518 37.4704 43.3478 37.2604 43.3478H36.8802ZM44.4844 36.5067C44.4844 36.2968 44.6546 36.1266 44.8646 36.1266H45.2448C45.4548 36.1266 45.625 36.2968 45.625 36.5067V38.407C45.625 38.6169 45.4548 38.787 45.2448 38.787H44.8646C44.6546 38.787 44.4844 38.6169 44.4844 38.407V36.5067ZM42.2031 43.3478C41.9931 43.3478 41.8229 43.518 41.8229 43.7279V45.6282C41.8229 45.8381 41.9931 46.0082 42.2031 46.0082H42.5833C42.7933 46.0082 42.9635 45.8381 42.9635 45.6282V43.7279C42.9635 43.518 42.7933 43.3478 42.5833 43.3478H42.2031Z" fill="url(#paint3_linear_1041_16128)"/>
<path d="M15.5885 39.9284C15.1686 39.9284 14.8281 40.2687 14.8281 40.6885V42.5877H20.151V40.6885C20.151 40.2687 19.8106 39.9284 19.3906 39.9284H15.5885Z" fill="url(#paint4_linear_1041_16128)"/>
<path d="M20.151 43.3478H14.8281V53.2295C14.8281 53.6493 15.1686 53.9896 15.5885 53.9896H19.3906C19.8106 53.9896 20.151 53.6493 20.151 53.2295V43.3478Z" fill="url(#paint5_linear_1041_16128)"/>
<path d="M21.6719 38.787C21.6719 38.3672 22.0123 38.0269 22.4323 38.0269H26.2344C26.6543 38.0269 26.9948 38.3672 26.9948 38.787V49.8072H21.6719V38.787Z" fill="url(#paint6_linear_1041_16128)"/>
<path d="M21.6719 50.5673V51.3275H26.9948V50.5673H21.6719Z" fill="url(#paint7_linear_1041_16128)"/>
<path d="M21.6719 52.0876H26.9948V53.2295C26.9948 53.6493 26.6543 53.9896 26.2344 53.9896H22.4323C22.0123 53.9896 21.6719 53.6493 21.6719 53.2295V52.0876Z" fill="url(#paint8_linear_1041_16128)"/>
<path d="M52.849 38.787C52.849 38.3672 53.1894 38.0269 53.6094 38.0269H57.4115C57.8314 38.0269 58.1719 38.3672 58.1719 38.787V40.6874H52.849V38.787Z" fill="url(#paint9_linear_1041_16128)"/>
<path d="M52.849 41.4475H58.1719V50.5673H52.849V41.4475Z" fill="url(#paint10_linear_1041_16128)"/>
<path d="M52.849 51.3275V53.2295C52.849 53.6493 53.1894 53.9896 53.6094 53.9896H57.4115C57.8314 53.9896 58.1719 53.6493 58.1719 53.2295V51.3275H52.849Z" fill="url(#paint11_linear_1041_16128)"/>
<path d="M39.9752 11.4062C39.8702 11.4062 39.7851 11.4913 39.7851 11.5963V16.8413C39.7282 16.8751 39.6789 16.925 39.6441 16.9909L32.5746 30.3969L32.0691 30.6279C32.0439 30.6394 32.0175 30.6482 31.9904 30.654L27.6776 31.5742C27.2314 31.6694 27.3007 32.326 27.757 32.326L32.1845 32.3259L32.1875 32.326H48.0269L48.0298 32.3259L52.0861 32.326C52.5424 32.326 52.6117 31.6694 52.1655 31.5742L47.8527 30.654C47.8256 30.6482 47.7992 30.6394 47.774 30.6279L47.7315 30.6085L40.3144 16.9865C40.2775 16.9187 40.2251 16.8683 40.1653 16.8352V14.0667H43.5762C43.7348 14.0667 43.8237 13.8839 43.7257 13.7593L43.0141 12.8539C42.9599 12.785 42.9599 12.688 43.0141 12.6191L43.7257 11.7137C43.8237 11.589 43.7348 11.4062 43.5762 11.4062H39.9752Z" fill="url(#paint12_linear_1041_16128)"/>
<defs>
<linearGradient id="paint0_linear_1041_16128" x1="36.5" y1="3.80212" x2="36.5" y2="69.198" gradientUnits="userSpaceOnUse">
<stop stop-color="#FFA144"/>
<stop offset="1" stop-color="#356169" stop-opacity="0.9"/>
</linearGradient>
<linearGradient id="paint1_linear_1041_16128" x1="36.5" y1="13.6284" x2="36.5" y2="59.3716" gradientUnits="userSpaceOnUse">
<stop stop-color="#F0F2F3"/>
<stop offset="1" stop-color="#F0F2F3" stop-opacity="0.5"/>
</linearGradient>
<linearGradient id="paint2_linear_1041_16128" x1="36.5" y1="11.4063" x2="36.5" y2="53.9896" gradientUnits="userSpaceOnUse">
<stop stop-color="#356169"/>
<stop offset="1" stop-color="#356169" stop-opacity="0.9"/>
</linearGradient>
<linearGradient id="paint3_linear_1041_16128" x1="36.5" y1="11.4063" x2="36.5" y2="53.9896" gradientUnits="userSpaceOnUse">
<stop stop-color="#356169"/>
<stop offset="1" stop-color="#356169" stop-opacity="0.9"/>
</linearGradient>
<linearGradient id="paint4_linear_1041_16128" x1="36.5" y1="11.4063" x2="36.5" y2="53.9896" gradientUnits="userSpaceOnUse">
<stop stop-color="#356169"/>
<stop offset="1" stop-color="#356169" stop-opacity="0.9"/>
</linearGradient>
<linearGradient id="paint5_linear_1041_16128" x1="36.5" y1="11.4063" x2="36.5" y2="53.9896" gradientUnits="userSpaceOnUse">
<stop stop-color="#356169"/>
<stop offset="1" stop-color="#356169" stop-opacity="0.9"/>
</linearGradient>
<linearGradient id="paint6_linear_1041_16128" x1="36.5" y1="11.4063" x2="36.5" y2="53.9896" gradientUnits="userSpaceOnUse">
<stop stop-color="#356169"/>
<stop offset="1" stop-color="#356169" stop-opacity="0.9"/>
</linearGradient>
<linearGradient id="paint7_linear_1041_16128" x1="36.5" y1="11.4063" x2="36.5" y2="53.9896" gradientUnits="userSpaceOnUse">
<stop stop-color="#356169"/>
<stop offset="1" stop-color="#356169" stop-opacity="0.9"/>
</linearGradient>
<linearGradient id="paint8_linear_1041_16128" x1="36.5" y1="11.4063" x2="36.5" y2="53.9896" gradientUnits="userSpaceOnUse">
<stop stop-color="#356169"/>
<stop offset="1" stop-color="#356169" stop-opacity="0.9"/>
</linearGradient>
<linearGradient id="paint9_linear_1041_16128" x1="36.5" y1="11.4063" x2="36.5" y2="53.9896" gradientUnits="userSpaceOnUse">
<stop stop-color="#356169"/>
<stop offset="1" stop-color="#356169" stop-opacity="0.9"/>
</linearGradient>
<linearGradient id="paint10_linear_1041_16128" x1="36.5" y1="11.4063" x2="36.5" y2="53.9896" gradientUnits="userSpaceOnUse">
<stop stop-color="#356169"/>
<stop offset="1" stop-color="#356169" stop-opacity="0.9"/>
</linearGradient>
<linearGradient id="paint11_linear_1041_16128" x1="36.5" y1="11.4063" x2="36.5" y2="53.9896" gradientUnits="userSpaceOnUse">
<stop stop-color="#356169"/>
<stop offset="1" stop-color="#356169" stop-opacity="0.9"/>
</linearGradient>
<linearGradient id="paint12_linear_1041_16128" x1="36.5" y1="11.4063" x2="36.5" y2="53.9896" gradientUnits="userSpaceOnUse">
<stop stop-color="#356169"/>
<stop offset="1" stop-color="#356169" stop-opacity="0.9"/>
</linearGradient>
</defs>
</svg>
